<svg width="0" height="0" class="hidden">
    <symbol xmlns="http://www.w3.org/2000/svg" viewBox="0 0 221.053 221.053" id="home">
        <path fill="currentColor" d="M218.278 103.775L118.384 7.497c-2.098-2.022-4.889-3.136-7.856-3.136-2.969 0-5.76 1.113-7.857 3.136L2.776 103.775c-3.346 3.224-2.955 5.996-2.425 7.312.531 1.315 2.115 3.605 6.761 3.605H18.36v85.57c0 8.906 7.676 16.43 16.368 16.43H85.36v-58h49v58h51.965c8.72 0 16.035-7.678 16.035-16.43v-85.57h11.581c4.646 0 6.229-2.29 6.761-3.605.53-1.316.922-4.087-2.424-7.312z"></path>
    </symbol>
    <symbol xmlns="http://www.w3.org/2000/svg" viewBox="0 0 510 510" id="shopping-cart">
        <path fill="currentColor" d="M153 408c-28.05 0-51 22.95-51 51s22.95 51 51 51 51-22.95 51-51-22.95-51-51-51zM0 0v51h51l91.8 193.8-35.7 61.2c-2.55 7.65-5.1 17.85-5.1 25.5 0 28.05 22.95 51 51 51h306v-51H163.2c-2.55 0-5.1-2.55-5.1-5.1v-2.551l22.95-43.35h188.7c20.4 0 35.7-10.2 43.35-25.5L504.9 89.25c5.1-5.1 5.1-7.65 5.1-12.75 0-15.3-10.2-25.5-25.5-25.5H107.1L84.15 0H0zm408 408c-28.05 0-51 22.95-51 51s22.95 51 51 51 51-22.95 51-51-22.95-51-51-51z"></path>
    </symbol>
    <symbol xmlns="http://www.w3.org/2000/svg" viewBox="0 0 561 561" id="add">
        <path fill="currentColor" d="M51 102H0v408c0 28.05 22.95 51 51 51h408v-51H51V102zM510 0H153c-28.05 0-51 22.95-51 51v357c0 28.05 22.95 51 51 51h357c28.05 0 51-22.95 51-51V51c0-28.05-22.95-51-51-51zm-51 255H357v102h-51V255H204v-51h102V102h51v102h102v51z"></path>
    </symbol>
    <symbol xmlns="http://www.w3.org/2000/svg" viewBox="0 0 905.119 905.119" id="bags">
        <path fill="currentColor" d="M286.364 295.622c45.759 3.359 83.48 35.367 95.401 78.183.768 2.76 3.248 4.69 6.113 4.69h82.465a8.763 8.763 0 0 1 8.727 7.98l36.914 412.411a8.762 8.762 0 0 0 8.728 7.98h320.297c5.146 0 9.186-4.416 8.727-9.543l-60.46-675.62a8.76 8.76 0 0 0-8.727-7.981H662.472a4.874 4.874 0 0 1-4.854-4.492C652.689 48.103 601.657 0 539.265 0c-62.393 0-113.417 48.103-118.352 109.232a4.874 4.874 0 0 1-4.854 4.491H304.332a8.764 8.764 0 0 0-8.728 7.98l-14.97 167.159c-.309 3.458 2.268 6.506 5.73 6.76zm252.91-275.263c50.83 0 92.679 38.721 97.859 88.207.288 2.751-1.841 5.158-4.607 5.158H446.021c-2.766 0-4.895-2.407-4.606-5.158 5.18-49.486 47.029-88.207 97.859-88.207z"></path>
        <path fill="currentColor" d="M63.479 905.119H490.92c7.127 0 12.718-6.113 12.083-13.211l-43.231-483.012a12.131 12.131 0 0 0-12.083-11.05h-81.631c-3.188 0-5.884-2.394-6.223-5.563-4.677-43.643-41.517-77.664-86.414-77.664-44.89 0-81.737 34.013-86.415 77.664-.34 3.17-3.035 5.563-6.223 5.563h-74.072a12.131 12.131 0 0 0-12.083 11.05L51.397 891.908c-.636 7.098 4.956 13.211 12.082 13.211zm144.237-514.291c5.174-31.625 32.616-55.85 65.693-55.85 33.078 0 60.52 24.225 65.701 55.849.603 3.673-2.2 7.021-5.921 7.021H213.637c-3.72-.002-6.521-3.348-5.921-7.02z"></path>
    </symbol>
    <symbol viewBox="0 0 511.096 511.096" xmlns="http://www.w3.org/2000/svg" id="contact">
        <path fill="currentColor" d="M74.414 480.548H38.2l25.607-25.607c13.807-13.807 22.429-31.765 24.747-51.246C29.427 364.893 0 308.681 0 249.751 0 141.032 99.923 30.548 256.414 30.548c165.785 0 254.682 101.666 254.682 209.678 0 108.724-89.836 210.322-254.682 210.322-28.877 0-59.01-3.855-85.913-10.928-25.467 26.121-59.973 40.928-96.087 40.928z"></path>
    </symbol>
    <symbol xmlns="http://www.w3.org/2000/svg" viewBox="0 0 28.931 28.932" id="search">
        <path fill="currentColor" d="M28.344 25.518l-6.114-6.115a12.177 12.177 0 0 0 2.303-7.137c0-3.275-1.275-6.355-3.594-8.672A12.183 12.183 0 0 0 12.266 0a12.176 12.176 0 0 0-8.673 3.594 12.183 12.183 0 0 0-3.592 8.672c0 3.276 1.275 6.356 3.592 8.674a12.187 12.187 0 0 0 8.673 3.594c2.599 0 5.067-.813 7.136-2.303l6.114 6.115c.392.391.902.586 1.414.586a2 2 0 0 0 1.414-3.414zM6.422 18.111c-1.562-1.562-2.421-3.639-2.421-5.846s.859-4.282 2.421-5.844c1.561-1.562 3.636-2.422 5.844-2.422s4.284.86 5.845 2.422c1.562 1.562 2.422 3.638 2.422 5.845s-.859 4.283-2.422 5.846c-1.562 1.562-3.636 2.42-5.845 2.42s-4.285-.86-5.844-2.421z"></path>
    </symbol>
    <symbol xmlns="http://www.w3.org/2000/svg" viewBox="0 0 43.028 43.028" id="user">
        <path fill="currentColor" d="M39.561 33.971l-.145.174c-4.774 5.728-11.133 8.884-17.902 8.884-6.77 0-13.128-3.155-17.903-8.884l-.144-.174.034-.223c.922-6.014 4.064-10.845 8.847-13.606l.34-.196.271.284c2.259 2.37 5.297 3.674 8.554 3.674s6.295-1.305 8.554-3.674l.271-.284.34.196c4.783 2.761 7.925 7.592 8.848 13.606l.035.223zM21.514 21.489c5.924 0 10.744-4.82 10.744-10.744C32.258 4.821 27.438 0 21.514 0S10.77 4.821 10.77 10.744s4.82 10.745 10.744 10.745z"></path>
    </symbol>
    <symbol xmlns="http://www.w3.org/2000/svg" viewBox="0 0 62.635 62.635" id="email">
        <path fill="currentColor" d="M55.228 8.237H7.407C3.323 8.237 0 11.56 0 15.644v31.347c0 4.084 3.323 7.407 7.407 7.407h47.821c4.084 0 7.407-3.323 7.407-7.407V15.644c0-4.084-3.323-7.407-7.407-7.407zm5.407 38.754a5.413 5.413 0 0 1-5.407 5.407H7.407A5.414 5.414 0 0 1 2 46.991V15.644a5.413 5.413 0 0 1 5.407-5.407h47.821a5.413 5.413 0 0 1 5.407 5.407v31.347zm-4.139-31.678a.999.999 0 0 1 0 1.414L36.095 37.128c-1.317 1.317-3.047 1.976-4.778 1.976s-3.46-.659-4.778-1.976l-20.4-20.401a.999.999 0 1 1 1.414-1.414l20.401 20.401a4.764 4.764 0 0 0 6.728 0l20.401-20.401a.998.998 0 0 1 1.413 0z"></path>
    </symbol>
    <symbol xmlns="http://www.w3.org/2000/svg" viewBox="0 0 511 511" id="password">
        <path fill="currentColor" d="M479.5 132h-448C14.131 132 0 146.131 0 163.5v96C0 276.869 14.131 291 31.5 291h280a7.5 7.5 0 0 0 0-15h-280c-9.098 0-16.5-7.402-16.5-16.5v-96c0-9.098 7.402-16.5 16.5-16.5h448c9.098 0 16.5 7.402 16.5 16.5v72a7.5 7.5 0 0 0 15 0v-72c0-17.369-14.131-31.5-31.5-31.5z"></path>
        <path fill="currentColor" d="M479 253.234V243.5c0-35.014-28.486-63.5-63.5-63.5S352 208.486 352 243.5v9.734c-9.29 3.138-16 11.93-16 22.266v80c0 12.958 10.542 23.5 23.5 23.5h112c12.958 0 23.5-10.542 23.5-23.5v-80c0-10.336-6.71-19.128-16-22.266zM415.5 195c26.743 0 48.5 21.757 48.5 48.5v8.5h-97v-8.5c0-26.743 21.757-48.5 48.5-48.5zM480 355.5c0 4.687-3.813 8.5-8.5 8.5h-112c-4.687 0-8.5-3.813-8.5-8.5v-80c0-4.687 3.813-8.5 8.5-8.5h112c4.687 0 8.5 3.813 8.5 8.5v80zM121.708 191.75a7.5 7.5 0 0 0-10.245-2.745L95 198.51V179.5a7.5 7.5 0 0 0-15 0v19.01l-16.463-9.505a7.5 7.5 0 0 0-7.5 12.99L72.5 211.5l-16.463 9.505a7.5 7.5 0 0 0 7.5 12.99L80 224.49v19.01a7.5 7.5 0 0 0 15 0v-19.01l16.463 9.505a7.497 7.497 0 0 0 10.245-2.745 7.5 7.5 0 0 0-2.745-10.245L102.5 211.5l16.463-9.505a7.5 7.5 0 0 0 2.745-10.245zm96 0a7.5 7.5 0 0 0-10.245-2.745L191 198.51V179.5a7.5 7.5 0 0 0-15 0v19.01l-16.463-9.505a7.5 7.5 0 0 0-7.5 12.99L168.5 211.5l-16.463 9.505a7.5 7.5 0 0 0 7.5 12.99L176 224.49v19.01a7.5 7.5 0 0 0 15 0v-19.01l16.463 9.505a7.497 7.497 0 0 0 10.245-2.745 7.5 7.5 0 0 0-2.745-10.245L198.5 211.5l16.463-9.505a7.5 7.5 0 0 0 2.745-10.245zm96 0a7.5 7.5 0 0 0-10.245-2.745L287 198.51V179.5a7.5 7.5 0 0 0-15 0v19.01l-16.463-9.505a7.5 7.5 0 0 0-7.5 12.99L264.5 211.5l-16.463 9.505a7.5 7.5 0 0 0 7.5 12.99L272 224.49v19.01a7.5 7.5 0 0 0 15 0v-19.01l16.463 9.505a7.497 7.497 0 0 0 10.245-2.745 7.5 7.5 0 0 0-2.745-10.245L294.5 211.5l16.463-9.505a7.5 7.5 0 0 0 2.745-10.245z"></path>
        <path fill="currentColor" d="M415.5 284c-12.958 0-23.5 10.542-23.5 23.5 0 10.336 6.71 19.128 16 22.266v9.734a7.5 7.5 0 0 0 15 0v-9.734c9.29-3.138 16-11.93 16-22.266 0-12.958-10.542-23.5-23.5-23.5zm0 32c-4.687 0-8.5-3.813-8.5-8.5s3.813-8.5 8.5-8.5 8.5 3.813 8.5 8.5-3.813 8.5-8.5 8.5z"></path>
  </symbol>
    <symbol xmlns="http://www.w3.org/2000/svg" viewBox="0 0 492.004 492.004" id="arrow_right">
        <path fill="currentColor" d="M484.14 226.886L306.46 49.202c-5.072-5.072-11.832-7.856-19.04-7.856-7.216 0-13.972 2.788-19.044 7.856l-16.132 16.136c-5.068 5.064-7.86 11.828-7.86 19.04 0 7.208 2.792 14.2 7.86 19.264L355.9 207.526H26.58C11.732 207.526 0 219.15 0 234.002v22.812c0 14.852 11.732 27.648 26.58 27.648h330.496L252.248 388.926c-5.068 5.072-7.86 11.652-7.86 18.864 0 7.204 2.792 13.88 7.86 18.948l16.132 16.084c5.072 5.072 11.828 7.836 19.044 7.836 7.208 0 13.968-2.8 19.04-7.872l177.68-177.68c5.084-5.088 7.88-11.88 7.86-19.1.016-7.244-2.776-14.04-7.864-19.12z"></path>
    </symbol>
    <symbol xmlns="http://www.w3.org/2000/svg" viewBox="0 0 520.349 520.349" id="door">
        <path fill="currentColor" d="M445.223 0H142.589c-6.683 0-12.105 5.423-12.105 12.105v180.979h16.65c-5.006-6.392-7.725-14.224-7.725-22.467-.006-9.764 3.8-18.943 10.708-25.845 1.421-1.421 2.973-2.687 4.583-3.845V24.211h278.417v8.697l-127.104 92.285v395.155l127.796-92.787c1.626 4.77 6.095 8.228 11.414 8.228 6.685 0 12.105-5.426 12.105-12.105V12.105C457.328 5.417 451.907 0 445.223 0zm-91.192 331.973c-5.71 0-10.468-7.046-11.691-16.485h-13.63v-10.592h13.819c1.448-8.86 6.017-15.38 11.49-15.38 6.638 0 12.011 9.498 12.011 21.231.012 11.721-5.367 21.226-11.999 21.226zm-203.909-17.502a37.047 37.047 0 004.572 3.824v105.389c0 6.68-5.426 12.105-12.105 12.105-6.683 0-12.105-5.426-12.105-12.105V266.139h16.65c-11.186 14.327-10.199 35.132 2.988 48.332zm86.584-96.086a12.312 12.312 0 010 17.425l-58.995 59.001a12.348 12.348 0 01-8.709 3.611 12.304 12.304 0 01-8.71-3.611c-4.811-4.817-4.805-12.613 0-17.419l37.974-37.977H75.336c-6.803 0-12.315-5.512-12.315-12.315s5.506-12.318 12.321-12.318h122.917l-37.968-37.974c-4.805-4.805-4.811-12.608 0-17.413 4.812-4.812 12.614-4.812 17.425 0l58.99 58.99z"/>
    </symbol>
    <symbol xmlns="http://www.w3.org/2000/svg" viewBox="0 0 348.882 348.882" id="pen">
        <path fill="currentColor" d="M333.988 11.758l-.42-.383A43.363 43.363 0 00304.258 0a43.579 43.579 0 00-32.104 14.153L116.803 184.231a14.993 14.993 0 00-3.154 5.37l-18.267 54.762c-2.112 6.331-1.052 13.333 2.835 18.729 3.918 5.438 10.23 8.685 16.886 8.685h.001c2.879 0 5.693-.592 8.362-1.76l52.89-23.138a14.985 14.985 0 005.063-3.626L336.771 73.176c16.166-17.697 14.919-45.247-2.783-61.418zM130.381 234.247l10.719-32.134.904-.99 20.316 18.556-.904.99-31.035 13.578zm184.24-181.304L182.553 197.53l-20.316-18.556L294.305 34.386c2.583-2.828 6.118-4.386 9.954-4.386 3.365 0 6.588 1.252 9.082 3.53l.419.383c5.484 5.009 5.87 13.546.861 19.03z"/>
        <path fill="currentColor" d="M303.85 138.388c-8.284 0-15 6.716-15 15v127.347c0 21.034-17.113 38.147-38.147 38.147H68.904c-21.035 0-38.147-17.113-38.147-38.147V100.413c0-21.034 17.113-38.147 38.147-38.147h131.587c8.284 0 15-6.716 15-15s-6.716-15-15-15H68.904C31.327 32.266.757 62.837.757 100.413v180.321c0 37.576 30.571 68.147 68.147 68.147h181.798c37.576 0 68.147-30.571 68.147-68.147V153.388c.001-8.284-6.715-15-14.999-15z"/>
    </symbol>
    <symbol xmlns="http://www.w3.org/2000/svg" viewBox="0 0 220.001 220.001" id="edit">
        <path fill="currentColor" d="M0 220l59.34-6.14-53.197-53.199zM132.018 34.787l53.197 53.197L69.568 203.631 16.37 150.434 132.018 34.787zm80.678 25.715c9.738-9.738 9.742-25.527 0-35.268l-17.93-17.93c-9.738-9.74-25.529-9.738-35.268 0l-17.346 17.347 53.199 53.196 17.345-17.345z"></path>
    </symbol>
    <symbol xmlns="http://www.w3.org/2000/svg" viewBox="0 0 459 459" id="trash">
        <path fill="currentColor" d="M76.5 408c0 28.05 22.95 51 51 51h204c28.05 0 51-22.95 51-51V102h-306v306zM408 25.5h-89.25L293.25 0h-127.5l-25.5 25.5H51v51h357v-51z"></path>
    </symbol>
    <symbol xmlns="http://www.w3.org/2000/svg" viewBox="0 0 456.795 456.795" id="eye">
        <path fill="currentColor" d="M448.947 218.475c-.922-1.168-23.055-28.933-61-56.81-50.705-37.253-105.877-56.944-159.551-56.944-53.672 0-108.844 19.691-159.551 56.944-37.944 27.876-60.077 55.642-61 56.81L0 228.397l7.846 9.923c.923 1.168 23.056 28.934 61 56.811 50.707 37.252 105.879 56.943 159.551 56.943 53.673 0 108.845-19.691 159.55-56.943 37.945-27.877 60.078-55.643 61-56.811l7.848-9.923-7.848-9.922zm-220.551 96.564c-47.774 0-86.642-38.867-86.642-86.642 0-7.485.954-14.751 2.747-21.684l-19.781-3.329a106.44 106.44 0 0 0-2.966 25.013c0 30.86 13.182 58.696 34.204 78.187-27.061-9.996-50.072-24.023-67.439-36.709-21.516-15.715-37.641-31.609-46.834-41.478 9.197-9.872 25.32-25.764 46.834-41.478 17.367-12.686 40.379-26.713 67.439-36.71l13.27 14.958c15.498-14.512 36.312-23.412 59.168-23.412 47.774 0 86.641 38.867 86.641 86.642s-38.867 86.642-86.641 86.642zm139.877-45.164c-17.369 12.686-40.379 26.713-67.439 36.709 21.021-19.49 34.203-47.326 34.203-78.188s-13.182-58.697-34.203-78.188c27.061 9.997 50.07 24.024 67.439 36.71 21.516 15.715 37.641 31.609 46.834 41.477-9.197 9.874-25.32 25.767-46.834 41.48z"></path>
        <path fill="currentColor" d="M173.261 211.555a57.616 57.616 0 0 0-2.507 16.843c0 31.834 25.807 57.642 57.642 57.642 31.834 0 57.641-25.807 57.641-57.642s-25.807-57.642-57.641-57.642c-15.506 0-29.571 6.134-39.932 16.094l28.432 32.048-43.635-7.343z"></path>
    </symbol>
    <symbol xmlns="http://www.w3.org/2000/svg" viewBox="0 0 97.68 97.68" id="category">
        <path fill="currentColor" d="M42.72 65.596h-8.011V2a2 2 0 0 0-2-2h-16.13a2 2 0 0 0-2 2v63.596H6.568A2 2 0 0 0 5.01 68.85l18.076 26.955a1.997 1.997 0 0 0 3.116 0L44.278 68.85a2.001 2.001 0 0 0-1.558-3.254zm50.278-26.281L79.668 1.541A2 2 0 0 0 77.782.207h-3.861c-.106 0-.213.008-.317.025a1.861 1.861 0 0 0-.318-.025h-3.76c-.85 0-1.605.535-1.888 1.336L54.362 39.317a1.998 1.998 0 0 0 1.887 2.662h5.774a2 2 0 0 0 1.913-1.416l2.535-8.324H80.89l2.536 8.324a1.998 1.998 0 0 0 1.913 1.416h5.771a2.001 2.001 0 0 0 1.888-2.664zM68.864 24.283c2.397-7.77 4.02-13.166 4.82-16.041l4.928 16.041h-9.748zm18.391 65.555H69.438l18.928-27.205a2.01 2.01 0 0 0 .357-1.143v-3.416a2 2 0 0 0-2-2h-26.07a2 2 0 0 0-2 2v3.844a2 2 0 0 0 2 2h16.782L58.481 91.094a2 2 0 0 0-.359 1.145v3.441a2 2 0 0 0 2 2h27.135a2 2 0 0 0 2-2v-3.842a2.001 2.001 0 0 0-2.002-2z"></path>
    </symbol>
    <symbol xmlns="http://www.w3.org/2000/svg" viewBox="0 0 512 512" id="location">
        <path fill="currentColor" d="M308.2 364.465l79.247-144.236c11.698-21.667 17.885-46.177 17.885-70.896C405.333 66.99 338.344 0 256 0S106.667 66.99 106.667 149.333c0 24.719 6.188 49.229 17.927 70.958l79.208 144.173c-69.939 4.439-182.469 19.813-182.469 72.869C21.333 509.906 231.979 512 256 512s234.667-2.094 234.667-74.667c0-53.056-112.528-68.429-182.467-72.868zM170.667 149.333C170.667 102.281 208.948 64 256 64s85.333 38.281 85.333 85.333-38.281 85.333-85.333 85.333-85.333-38.281-85.333-85.333zm85.333 320c-104.885 0-173.667-19.177-189.781-32 14.548-11.577 72.133-28.284 160.348-31.431l20.09 36.566a10.632 10.632 0 0 0 9.344 5.531c3.896 0 7.479-2.115 9.344-5.531l20.091-36.566c88.214 3.147 145.798 19.854 160.346 31.431-16.115 12.823-84.897 32-189.782 32z"></path>
    </symbol>
    <symbol xmlns="http://www.w3.org/2000/svg" viewBox="0 0 421.566 421.566" id="balance">
        <path fill="currentColor" d="M164.051 314.991l.002-152.814c.246-.587.528-1.271.844-2.045a794.285 794.285 0 004.434-11.217c3.91-10.066 8.81-22.996 13.442-35.473 7.416-19.973 20.502-55.884 24.815-71.982a12.997 12.997 0 00-9.43-15.984c-31.326-7.761-62.996-11.696-94.13-11.696-31.133 0-62.81 3.935-94.152 11.695A13.002 13.002 0 00.445 41.459c4.314 16.103 17.398 52.01 24.814 71.98 4.635 12.483 9.534 25.413 13.442 35.474a795.718 795.718 0 004.435 11.218c.316.776.599 1.46.846 2.047V314.99H27.5v43.04h26v34.756c0 8.284 6.716 15 15 15s15-6.716 15-15V358.03h282.066v34.756c0 8.284 6.716 15 15 15 8.283 0 15-6.716 15-15V358.03h26v-43.04H164.051zM43.459 87.581c-5.314-14.607-10.386-28.974-13.962-39.926 24.901-5.229 49.913-7.875 74.53-7.875 24.615 0 49.619 2.646 74.507 7.873-3.576 10.952-8.648 25.319-13.963 39.928h-54.657c-.117-.093-.224-.193-.345-.283L67.016 55.891l14.854 31.69H43.459zm96.286 65.321c-1.071 2.441-1.694 4.148-1.694 6.418v155.67h-68.07l-.002-155.67c0-2.343-.66-4.098-1.704-6.439-1.671-3.757-7.926-19.855-15.212-39.301h101.904c-7.299 19.483-13.564 35.603-15.222 39.322z"/>
    </symbol>
    <symbol xmlns="http://www.w3.org/2000/svg" viewBox="0 0 46.999 46.999" id="admin">
        <path fill="currentColor" d="M22.271 17.998l.599-3.85-.301-.485a.173.173 0 0 1 .019-.214l.784-.848a.183.183 0 0 1 .26 0l.784.848a.172.172 0 0 1 .019.214l-.301.485.6 3.849c4.723-.079 7.582-.619 7.582-1.18 0-2.746-1.866-2.867-3.94-3.544-1.278-.415-2.86-.649-2.522-2.851.842-.77 1.135-2.355 1.135-2.355s1.121-.565 1.25-1.647c.095-.825-.336-1.208-.336-1.208V4.166c0-2.33-1.996-4.166-4.397-4.166-2.402 0-4.398 1.835-4.398 4.166v1.046s-.43.383-.335 1.208c.129 1.082 1.249 1.647 1.249 1.647s.293 1.585 1.136 2.355c.338 2.202-1.245 2.436-2.523 2.851-2.074.678-3.94.799-3.94 3.544-.007.561 2.852 1.101 7.576 1.181zM9.124 43.852c-.854-.276-1.909-.437-1.682-1.904.563-.512.757-1.569.757-1.569s.746-.375.832-1.096c.063-.55-.224-.808-.224-.808v-.695c0-1.555-1.331-2.777-2.932-2.777s-2.932 1.223-2.932 2.777v.695s-.287.258-.224.808c.086.721.832 1.096.832 1.096s.194 1.058.757 1.569c.228 1.469-.828 1.628-1.682 1.904-1.38.447-2.626.529-2.626 2.361 0 .373 1.907.734 5.055.786l.4-2.563-.203-.326a.124.124 0 0 1 .013-.145l.524-.562a.119.119 0 0 1 .172 0l.524.562c.037.041.039.1.013.145l-.203.324.4 2.563c3.147-.051 5.055-.412 5.055-.785 0-1.831-1.245-1.913-2.626-2.36zm17.625 0c-.854-.276-1.909-.437-1.682-1.904.562-.512.757-1.569.757-1.569s.745-.375.831-1.096c.063-.55-.223-.808-.223-.808v-.695c0-1.555-1.332-2.777-2.933-2.777-1.601 0-2.932 1.223-2.932 2.777v.695s-.287.258-.224.808c.086.721.832 1.096.832 1.096s.194 1.058.757 1.569c.228 1.469-.828 1.628-1.682 1.904-1.382.447-2.627.529-2.627 2.361 0 .373 1.907.734 5.055.786l.4-2.563-.203-.326a.123.123 0 0 1 .013-.144l.524-.563a.119.119 0 0 1 .172 0l.523.563a.124.124 0 0 1 .014.144l-.203.326.4 2.562c3.146-.051 5.055-.412 5.055-.785.002-1.832-1.243-1.914-2.624-2.361zm17.625.002c-.854-.278-1.909-.437-1.684-1.904.564-.514.758-1.571.758-1.571s.748-.375.832-1.096c.063-.55-.223-.808-.223-.808v-.695c0-1.555-1.33-2.777-2.933-2.777s-2.933 1.223-2.933 2.777v.695s-.285.258-.224.808c.085.721.833 1.096.833 1.096s.192 1.058.758 1.571c.227 1.469-.83 1.626-1.684 1.904-1.383.444-2.627.527-2.627 2.359 0 .373 1.906.734 5.055.786l.4-2.563-.202-.327a.12.12 0 0 1 .014-.142l.522-.563a.121.121 0 0 1 .174 0l.522.563a.12.12 0 0 1 .014.142l-.203.326.4 2.562c3.146-.051 5.055-.412 5.055-.785.002-1.831-1.242-1.914-2.624-2.358zM5.875 32.898c.649 0 1.175-.525 1.175-1.176v-4.699h15.275v4.699a1.175 1.175 0 1 0 2.35 0v-4.699H39.95v4.699a1.174 1.174 0 1 0 2.35 0V25.85c0-.649-.524-1.176-1.175-1.176h-16.45v-3.525a1.174 1.174 0 1 0-2.35 0v3.525H5.875c-.649 0-1.175.525-1.175 1.176v5.875a1.175 1.175 0 0 0 1.175 1.173z"></path>
    </symbol>
    <symbol xmlns="http://www.w3.org/2000/svg" viewBox="0 0 16 16" id="warning">
        <path fill="currentColor" d="M14.93 13.38L8.43 2.12A.5.5 0 008 1.88a.5.5 0 00-.43.25l-6.5 11.25a.5.5 0 00.43.76h13a.5.5 0 00.43-.76zM7.5 6.5c0-.07.06-.13.13-.13h.75c.06 0 .12.06.12.13v2.88c0 .06-.06.12-.12.12h-.75a.13.13 0 01-.13-.13V6.5zM8 12a.75.75 0 010-1.5.75.75 0 010 1.5z"/>
    </symbol>
    <symbol xmlns="http://www.w3.org/2000/svg" viewBox="0 0 24 24" id="check">
        <path fill="currentColor" d="M12 2a10.01 10.01 0 000 20 10.01 10.01 0 000-20zm-2 14.41l-3.71-3.7 1.41-1.42 2.3 2.3 5.3-5.3 1.4 1.42-6.7 6.7z"/>
    </symbol>
    <symbol xmlns="http://www.w3.org/2000/svg" viewBox="0 0 15 15" id="cross">
        <path fill="currentColor" d="M2.64 1.27L7.5 6.13l4.84-4.84A.92.92 0 0113 1a1 1 0 01.93 1.36.9.9 0 01-.2.3L8.84 7.5l4.89 4.89A.9.9 0 0114 13a1 1 0 01-1 1 .92.92 0 01-.69-.27L7.5 8.87l-4.85 4.85A.92.92 0 012 14a1 1 0 01-.93-1.36.9.9 0 01.2-.3L6.16 7.5 1.27 2.61A.9.9 0 011 2a1 1 0 011-1c.24 0 .47.1.64.27z"/>
    </symbol>
</svg>